<?xml version="1.0" encoding="UTF-8"?>
<svg width="601px" height="582px" viewBox="0 0 601 582" version="1.1" xmlns="http://www.w3.org/2000/svg" xmlns:xlink="http://www.w3.org/1999/xlink">
    <!-- Generator: Sketch 61.2 (89653) - https://sketch.com -->
    <title>Cannabis_leaf</title>
    <desc>Created with Sketch.</desc>
    <defs>
        <linearGradient x1="50%" y1="0%" x2="50%" y2="100%" id="linearGradient-1">
            <stop stop-color="#00B59C" offset="0%"></stop>
            <stop stop-color="#9CFFAC" offset="100%"></stop>
        </linearGradient>
    </defs>
    <g id="Page-1" stroke="none" stroke-width="1" fill="none" fill-rule="evenodd">
        <g id="Cannabis_leaf" fill="url(#linearGradient-1)" fill-rule="nonzero">
            <path d="M299.179332,569.001162 C304.628272,536.269472 306.668972,491.555392 303.000432,491.555392 C302.056622,491.555392 298.275342,493.481002 294.597572,495.834532 C285.770222,501.483482 262.926222,513.576672 261.082762,513.576672 C260.283772,513.576672 259.185682,512.782612 258.642542,511.812082 C257.808962,510.322572 255.987912,510.892172 246.959872,515.466282 C237.597222,520.209932 235.937662,520.710042 233.639792,519.480252 C231.374592,518.267962 229.835262,518.640762 222.407032,522.200632 C212.952972,526.731372 211.819862,526.959752 208.641832,524.975042 C206.874072,523.871052 205.553362,524.161682 201.413712,526.565612 C193.193302,531.339282 191.336272,531.595832 190.453792,528.079732 C190.037752,526.422102 189.368432,525.245592 188.966412,525.465252 C182.079112,529.228512 175.584282,531.427172 170.850252,531.598042 C164.255652,531.836072 157.418522,533.822042 140.350432,540.457282 C133.774852,543.013552 128.155842,544.866042 127.863742,544.573932 C126.490622,543.200812 129.596702,540.081602 141.194012,531.187262 C148.097412,525.892832 154.725632,520.659012 155.923372,519.556562 C157.121122,518.454122 159.390342,516.657862 160.966102,515.564862 C162.546972,514.468312 163.845682,512.408552 163.863642,510.969352 C163.888662,508.962742 165.449442,507.584762 170.630052,504.995462 C174.877072,502.872762 176.847852,501.310832 175.966472,500.766122 C173.329102,499.136132 175.912712,496.415282 182.404082,493.986552 C185.977902,492.649412 189.925472,491.555392 191.176482,491.555392 C193.772372,491.555392 193.913102,491.107372 192.277282,488.050802 C191.247132,486.125952 191.708032,485.686512 196.044072,484.459292 C198.761382,483.690222 203.960172,483.016382 207.596922,482.961882 C213.738932,482.869832 214.165352,482.687592 213.592382,480.399542 C213.017302,478.103052 213.550412,477.884712 221.467772,477.174072 C226.196692,476.749622 231.675522,476.919792 233.831242,477.558082 C236.932762,478.476422 237.583482,478.394202 237.103952,477.144552 C236.154852,474.671232 242.233702,474.056982 260.658102,474.764502 L277.479602,475.410482 L265.889452,471.305342 C254.918092,467.419392 230.021862,459.701722 219.204142,456.833202 C216.475712,456.109712 214.437142,455.150932 214.673982,454.702592 C215.532932,453.076602 211.314092,450.402292 207.355552,450.063472 C205.126462,449.872662 198.788052,448.914762 193.270202,447.934802 C184.843272,446.438172 183.107452,445.751772 182.423582,443.645642 C181.975792,442.266582 181.669952,440.568662 181.743932,439.872472 C181.817922,439.176302 177.357132,437.657862 171.831052,436.498192 C161.128912,434.252272 156.900512,431.592292 158.087492,427.852422 C158.634392,426.129282 158.005682,425.542692 154.959482,424.934002 C144.333962,422.810852 139.173112,420.747402 137.286342,417.867822 C135.431962,415.037682 135.434342,414.736332 137.327522,412.644392 C139.040432,410.751642 139.074792,410.424372 137.560622,410.424372 C136.583842,410.424372 132.040362,409.578792 127.464022,408.545342 C121.229042,407.137302 118.691022,405.975872 117.338622,403.911862 C115.646132,401.328802 115.704292,401.015452 118.273232,398.875382 C119.779892,397.620232 120.621452,396.510772 120.143352,396.409872 C119.665262,396.308982 118.882932,396.155162 118.404832,396.068042 C113.455352,395.166182 99.2471856,388.787472 97.1023476,386.504382 C94.4300536,383.659812 94.4153226,383.536302 96.5614586,381.967002 C98.7303576,380.381042 98.7303576,380.340792 96.5614586,379.586142 C90.7026746,377.547602 83.8015536,374.218792 81.9382166,372.532492 C79.7218676,370.526722 79.1075436,366.381812 81.0266056,366.381812 C84.1206766,366.381812 81.4926106,364.362762 75.2454746,361.940382 C71.4283876,360.460272 67.2130516,357.860672 65.8780406,356.163482 L63.4507386,353.077672 L65.8778776,351.466122 C68.1979356,349.925652 67.9599786,349.652942 60.4838006,345.284112 C51.9942306,340.323092 50.6457866,338.950002 51.5148396,336.151302 C51.8835216,334.964002 50.9801856,333.813472 48.9547036,332.890592 C44.0373166,330.650092 36.9038136,324.577612 37.2497446,322.926602 C37.7085756,320.736732 24.2985896,310.385172 10.4166076,302.213342 C1.3350671,296.867352 -1.0314903,295.009602 0.88179959,294.728492 C2.28153,294.522842 6.1527434,295.238232 9.4845166,296.318252 C16.5856366,298.620122 40.1479766,307.936342 43.0230636,309.578912 C44.1134066,310.201842 45.7541186,310.424252 46.6690796,310.073152 C47.5840406,309.722042 51.6467236,311.161042 55.6972596,313.270912 C59.7478026,315.380782 63.4530456,317.284642 63.9311386,317.501702 C64.4092326,317.718762 64.8003996,317.070572 64.8003996,316.061252 C64.8003996,315.051942 65.0870826,314.226152 65.4374636,314.226152 C66.8785476,314.226152 73.7810836,318.247222 77.9081026,321.490912 C82.2220136,324.881502 82.3380076,324.904432 82.9690906,322.491132 C83.3243406,321.132682 84.0279086,320.021222 84.5325786,320.021222 C85.9234076,320.021222 98.1269516,330.200872 98.7497366,331.880522 C99.0605956,332.718942 99.8519826,331.947702 100.592742,330.084412 L101.890942,326.818952 L105.656712,329.478622 C107.727872,330.941442 111.875612,334.578432 114.873902,337.560832 L120.325342,342.983362 L121.628122,339.035892 C122.344652,336.864772 123.208502,335.088412 123.547772,335.088412 C124.702712,335.088412 137.225312,346.904442 140.887432,351.449712 L144.536062,355.978202 L145.752952,352.487402 C146.422262,350.567452 147.458752,348.996592 148.056282,348.996592 C149.631762,348.996592 163.322022,363.888192 164.430562,366.807752 C165.340002,369.202922 165.414712,369.180792 166.846912,366.092052 C167.659752,364.339042 168.963602,362.904762 169.744382,362.904762 C171.504952,362.904762 185.320602,377.531712 185.384342,379.463132 C185.409862,380.236622 186.208852,379.435212 187.159872,377.682202 C188.110902,375.929192 189.277892,374.494912 189.753172,374.494912 C190.971222,374.494912 202.051932,387.243332 204.889482,391.909302 L207.251042,395.792582 L208.435462,392.677342 C209.086882,390.963962 210.096432,389.562102 210.678892,389.562102 C212.006722,389.562102 225.888692,407.841462 225.944522,409.663392 C225.967102,410.400652 226.619042,409.864652 227.393292,408.472282 C228.167522,407.079912 229.144632,405.776022 229.564642,405.574752 C230.483482,405.134442 243.945342,422.347122 246.437362,427.148652 C248.190092,430.525732 248.207112,430.530422 249.556632,428.008802 C250.898282,425.501912 250.960172,425.522412 255.052792,429.828762 C257.329372,432.224242 261.297302,436.901362 263.870402,440.222382 C268.860982,446.663572 282.956712,460.164852 289.633592,464.899092 L293.674492,467.764282 L291.082362,464.123972 C289.656692,462.121812 288.490242,460.144392 288.490242,459.729732 C288.490242,459.315072 286.443842,455.962322 283.942672,452.279192 C279.233742,445.345002 270.657792,436.367362 256.534262,423.586982 C252.026362,419.507802 247.668412,414.486282 246.849912,412.428062 C245.491052,409.011032 243.424362,407.067022 230.865162,397.392172 C227.461842,394.770472 223.585422,389.604702 223.585422,387.691092 C223.585422,387.445232 224.498142,387.216722 225.613692,387.183282 C227.240332,387.134522 227.074842,386.732892 224.777982,385.155012 C214.977152,378.422072 205.700292,370.696262 204.394692,368.179722 C203.079622,365.644912 203.136402,365.106722 204.818202,364.165532 C205.886402,363.567732 206.503962,362.865462 206.190542,362.604942 C205.877122,362.344412 201.969792,359.606742 197.507582,356.521222 C187.192772,349.388742 182.783842,344.360532 186.844652,344.360532 C187.673352,344.360532 188.945622,343.766282 189.671932,343.039972 C190.660002,342.051902 189.332242,340.644482 184.398412,337.450092 C178.099222,333.371692 170.270742,325.687932 170.270742,323.583582 C170.270742,323.037402 171.574632,322.263292 173.168282,321.863312 C174.761922,321.463322 176.065812,320.714862 176.065812,320.200042 C176.065812,319.685232 172.883142,316.958342 168.993192,314.140272 C165.103252,311.322212 161.198782,307.620762 160.316612,305.914832 C158.770912,302.925782 158.838362,302.785522 162.173682,302.052972 C166.596852,301.081482 166.534062,300.175082 161.867882,297.638102 C156.853962,294.912052 145.900392,285.037762 145.917702,283.259522 C145.925252,282.483052 147.274542,281.144042 148.916132,280.283932 L151.900822,278.720092 L147.122042,275.557642 C141.289862,271.698082 133.182272,264.476462 133.182272,263.141162 C133.182272,262.603472 135.164812,261.569552 137.587932,260.843562 L141.993592,259.523602 L131.792852,249.467422 C126.182452,243.936522 121.592122,238.569712 121.592122,237.541182 C121.592122,236.322082 123.002282,235.406582 125.643182,234.911142 L129.694232,234.151152 L122.360202,226.958812 C113.224882,217.999962 112.280122,215.891722 116.979522,214.951842 C118.879002,214.571952 120.433112,214.068182 120.433112,213.832342 C120.433112,213.596502 117.875012,210.228982 114.748452,206.348962 C108.902542,199.094252 106.878722,194.861172 109.241222,194.829892 C109.978362,194.820132 111.347092,194.327932 112.282822,193.736132 C113.727822,192.822232 113.631522,192.344662 111.643722,190.566582 C107.831752,187.156802 103.047882,180.286772 103.047882,178.222272 C103.047882,176.930572 104.028622,176.303392 106.048442,176.303392 L109.049022,176.303392 L105.993062,172.671592 C102.377662,168.374952 98.4118256,160.901352 98.4118256,158.384842 C98.4118256,157.392082 99.4081616,156.600142 100.657162,156.600142 C102.759002,156.600142 102.684932,156.120282 99.4981476,149.092002 C96.0099066,141.398842 95.0371226,136.107032 97.3769766,137.553142 C98.2318886,138.081502 98.4104586,137.559422 97.9119896,135.988902 C97.5004926,134.692392 96.1744056,130.063452 94.9651246,125.702382 C93.7558436,121.341312 89.6034186,110.888902 85.7375016,102.474822 C81.8715966,94.060719 78.7085766,86.808483 78.7085766,86.358731 C78.7085766,84.050517 84.5394396,91.512764 94.5817576,106.672982 C100.737142,115.965372 106.937392,124.672162 108.360092,126.021432 C109.782792,127.370692 112.339472,131.418452 114.041602,135.016462 C115.743742,138.614472 117.640222,141.246922 118.256012,140.866352 C118.871812,140.485762 120.175812,140.838462 121.153792,141.650132 C123.330252,143.456422 127.913762,152.457102 129.047582,157.151202 L129.880562,160.599802 L131.939742,157.869892 L133.998912,155.139982 L135.808452,157.723452 C136.803692,159.144372 138.575782,163.380112 139.746432,167.136242 C141.865652,173.935932 143.143932,175.150242 145.598642,172.695532 C146.308042,171.986132 147.392062,171.716932 148.007542,172.097332 C149.686812,173.135172 153.221262,180.998922 153.967162,185.356792 L154.624042,189.194642 L157.375392,186.626672 C160.046022,184.134032 160.164142,184.123452 161.401862,186.265882 C163.979042,190.726862 167.809692,201.002182 168.567292,205.486372 L169.346482,210.098342 L171.911592,207.688552 C173.322392,206.363172 175.053222,205.278772 175.757862,205.278772 C177.120022,205.278772 180.701872,219.235812 180.701872,224.543582 L180.701872,227.704112 L183.692812,224.894292 C186.587732,222.174702 186.735052,222.154622 188.281332,224.269262 C189.159992,225.470882 190.207352,228.644322 190.608792,231.321342 C191.700402,238.600662 192.784302,239.852852 195.705412,237.209272 C197.023152,236.016742 198.343902,235.283622 198.640412,235.580122 C199.853182,236.792902 204.826482,251.402322 205.586812,255.985662 C206.036232,258.694862 206.715662,260.911472 207.096642,260.911472 C207.477602,260.911472 208.994382,259.779382 210.467242,258.395702 C211.940092,257.012022 213.470862,256.205652 213.868952,256.603752 C215.080612,257.815412 217.752982,270.485202 217.772242,275.109402 C217.791472,279.724242 218.909422,280.558362 221.267392,277.717182 C222.060952,276.761002 223.127482,275.978662 223.637442,275.978662 C224.888332,275.978662 226.860692,282.206342 228.607742,291.672272 C229.943912,298.911952 230.188472,299.344412 231.950192,297.582702 C232.995622,296.537262 234.093182,295.681912 234.389222,295.681912 C235.504172,295.681912 241.334432,315.058892 242.007462,321.001282 L242.709162,327.196912 L245.899592,324.681492 C248.277792,322.806452 249.213532,322.556942 249.575102,323.701432 C249.841882,324.545872 251.709322,330.323162 253.724972,336.539822 C255.740602,342.756502 257.737522,350.237122 258.162562,353.163422 L258.935362,358.483972 L262.067102,356.017892 L265.198832,353.551802 L266.343232,357.938542 C269.134862,368.639432 270.965982,376.594412 271.688322,381.159242 C272.460652,386.039962 273.696522,387.296552 275.250872,384.781562 C276.284252,383.109512 278.342732,388.976362 282.621422,405.788312 C285.696512,417.871102 291.974212,434.740892 297.932592,446.933332 L300.198202,451.569392 L299.662122,442.297272 C299.358932,437.053472 297.855512,428.996832 296.201612,423.753032 C294.593192,418.653372 292.474022,410.569242 291.492342,405.788312 C289.941152,398.233732 289.925992,396.931092 291.376562,395.838402 C292.421072,395.051582 292.636982,394.172452 291.953562,393.489032 C290.880972,392.416442 282.695162,369.599302 282.695162,367.682182 C282.695162,367.143772 283.947262,366.942612 285.477602,367.235142 L288.260032,367.767052 L283.798582,356.680542 C281.344792,350.582952 278.991532,343.751832 278.569132,341.500232 C277.849372,337.663602 277.991252,337.406442 280.827662,337.406442 C282.492242,337.406442 283.854182,337.243272 283.854182,337.043842 C283.854182,336.844422 282.582572,334.045332 281.028372,330.823652 C278.446892,325.472472 274.582062,312.815522 274.582062,309.712552 C274.582062,309.007732 276.202532,308.431072 278.183112,308.431072 C281.165242,308.431072 281.637412,308.082482 280.930382,306.402802 C278.100512,299.679992 273.427512,286.750572 272.807752,283.928832 C272.111972,280.760942 272.264212,280.614722 276.258252,280.614722 L280.436662,280.614722 L278.797032,277.427432 C276.824572,273.593152 272.264032,259.054902 272.264032,256.601292 C272.264032,255.312872 273.191282,254.989392 275.790862,255.370932 C278.679512,255.794902 279.169442,255.556562 278.498492,254.053712 C276.815002,250.282972 272.462782,237.013282 271.679472,233.262912 L270.867272,229.374162 L275.796602,230.206962 C280.314272,230.970222 280.648142,230.859412 279.794282,228.880152 C276.867552,222.095922 274.534012,213.969762 273.856032,208.201162 L273.084082,201.633102 L277.226812,202.410272 L281.369532,203.187452 L278.582812,196.409762 C277.050112,192.682032 275.783722,187.871812 275.768592,185.720392 C275.742132,181.958842 275.879212,181.836352 279.340392,182.528582 C282.394532,183.139402 282.825752,182.951492 282.187382,181.287922 C276.959952,167.665492 276.987782,163.964372 282.313592,164.499362 L285.953362,164.865002 L284.199702,159.863302 C283.235182,157.112382 282.371712,152.253842 282.280852,149.066552 L282.115662,143.271482 L286.577822,143.540002 C290.417892,143.771082 290.919652,143.528702 290.176892,141.801472 C289.702202,140.697592 289.063222,134.899742 288.756952,128.917352 L288.200082,118.040252 L292.392332,118.826722 C296.529152,119.602802 296.569372,119.573222 295.434942,116.589442 C294.015962,112.857252 293.963182,104.429792 295.345102,102.247322 C295.908472,101.357622 297.204372,100.950092 298.224902,101.341692 C299.796722,101.944862 300.080392,101.010612 300.080392,95.230802 C300.080392,87.437117 300.844362,84.661645 302.784092,85.408512 C303.744162,85.778178 304.019752,84.041256 303.733302,79.426006 C303.351192,73.269812 303.459492,72.963808 305.761572,73.69446 C307.994282,74.403096 308.193492,74.023309 308.193492,69.05806 C308.193492,66.083516 308.921932,62.006304 309.812242,59.997592 C310.702562,57.988879 312.034312,50.869042 312.771692,44.175732 C314.322362,30.100256 317.192532,9.240072 318.273402,4.189726 L319.017562,0.712682 L319.864572,3.610219 C320.330432,5.203864 320.763582,12.999595 320.827122,20.934065 C320.967292,38.436717 323.118652,61.87258 324.675852,62.860027 C325.299972,63.255789 325.628042,66.510086 325.404902,70.091799 C325.036522,76.00495 325.197572,76.540879 327.155592,75.917801 C329.158802,75.280346 329.281902,75.894171 328.888432,84.558485 C328.490552,93.320004 328.605732,93.871683 330.788582,93.659618 C332.881322,93.456293 333.112062,94.12509 333.109872,100.387942 C333.108542,104.212692 332.675752,108.535912 332.148132,109.995102 C331.263702,112.441102 331.435782,112.586202 334.352772,111.854072 L337.516722,111.059972 L336.903082,120.895872 C336.565582,126.305612 335.670522,131.888252 334.914052,133.301712 C333.586492,135.782272 333.682402,135.844682 337.671792,135.096272 L341.804912,134.320892 L341.804912,138.833352 C341.804912,143.098672 339.752842,152.272522 337.735982,157.023652 C336.801822,159.224262 337.725992,159.195702 344.007182,156.829842 C345.331532,156.331012 345.514752,157.585792 345.003522,163.653212 C344.658992,167.742252 343.577292,173.366242 342.599752,176.150972 L340.822412,181.214112 L344.851272,180.560322 C347.624272,180.110322 349.064552,180.387112 349.471762,181.448272 C349.980922,182.775102 346.488992,194.359582 343.559342,201.062772 C342.717292,202.989412 343.008232,203.135192 346.266972,202.419442 C349.807442,201.641822 349.918022,201.737702 349.918022,205.584732 C349.918022,210.214502 346.284452,221.352952 342.906442,227.078262 C340.069322,231.886802 340.530982,232.606962 345.369372,230.920282 L349.052152,229.636472 L348.496882,235.415332 C348.191482,238.593702 346.330722,244.444262 344.361862,248.416572 C342.393002,252.388882 340.939912,255.796752 341.132782,255.989612 C341.325642,256.182472 342.878272,255.809952 344.583062,255.161782 C351.189702,252.649962 349.679512,260.645622 339.697812,281.026732 C339.430732,281.572072 340.838682,281.661012 342.826602,281.224402 C346.310752,280.459152 346.440272,280.569582 346.421482,284.289422 C346.410762,286.411822 344.594082,292.581552 342.384422,297.999942 C340.174762,303.418332 338.358092,307.981952 338.347362,308.141322 C338.336642,308.300682 339.673202,308.431072 341.317502,308.431072 C344.078262,308.431072 344.247212,308.719422 343.524512,312.197872 C343.094072,314.269612 340.966402,319.705202 338.796362,324.276972 C336.626322,328.848742 334.850832,332.841972 334.850832,333.150832 C334.850832,333.459682 335.893942,333.439612 337.168862,333.106212 C340.821112,332.151122 340.141792,337.843812 335.430332,347.674962 C333.199232,352.330492 331.373782,356.367782 331.373782,356.646712 C331.373782,356.925642 332.677672,356.826602 334.271322,356.426612 C336.675792,355.823142 337.168862,356.115222 337.168862,358.143062 C337.168862,359.487082 337.690412,360.586732 338.327872,360.586732 C338.965332,360.586732 339.486882,357.978952 339.486882,354.791662 C339.486882,350.518652 339.925542,348.996592 341.157002,348.996592 C342.075572,348.996592 343.149462,349.518142 343.543442,350.155602 C345.311612,353.016562 347.473572,351.201262 347.339432,346.968312 C347.176472,341.826672 348.770842,324.451792 349.518502,323.221402 C349.804722,322.750392 351.236312,323.149602 352.699832,324.108522 L355.360752,325.852032 L356.051932,314.506892 C356.829732,301.739842 357.613262,298.734192 359.919202,299.671852 C360.793132,300.027222 362.176022,300.590622 362.992282,300.923862 C364.094682,301.373902 364.856902,298.326192 365.955762,289.074612 C366.769382,282.224292 367.699882,276.354702 368.023502,276.031082 C368.347122,275.707462 370.073262,276.281382 371.859382,277.306482 L375.106872,279.170282 L375.883712,269.751122 C376.310972,264.570582 377.193452,258.337502 377.844772,255.899802 L379.028972,251.467652 L382.864922,254.393462 L386.700872,257.319292 L387.440752,251.024042 C388.411702,242.762782 390.302752,234.086602 391.581142,232.027752 C392.451172,230.626582 393.050782,230.673802 395.600192,232.344222 L398.596632,234.307572 L398.603102,229.934542 C398.606652,227.529382 399.156652,223.475302 399.825312,220.925462 C401.970712,212.744222 401.884352,212.861272 404.217382,214.972632 C407.455982,217.903522 409.027772,217.260812 409.027772,213.005662 C409.027772,207.997912 411.437112,196.006652 412.443292,196.006652 C412.870912,196.006652 414.233192,196.772402 415.470582,197.708312 C418.808512,200.232982 419.065022,199.981992 419.282512,193.978372 C419.506062,187.807292 422.515172,176.303392 423.905822,176.303392 C424.403632,176.303392 425.823342,177.069142 427.060722,178.005062 C430.296542,180.452512 431.048222,180.186842 431.055512,176.593152 C431.064152,172.332192 433.019732,165.809852 435.110672,163.068172 C436.710922,160.969892 436.930712,160.955302 438.981652,162.811392 C441.071062,164.702262 441.183062,164.582172 441.846792,159.739832 C442.226682,156.968192 443.089862,153.247662 443.764972,151.472002 C444.956622,148.337712 445.076462,148.298572 447.872362,150.130522 C450.668322,151.962502 450.752292,151.935052 450.752292,149.189362 C450.752292,147.633872 451.813732,143.884952 453.111042,140.858452 C454.906102,136.670752 455.792432,135.678352 456.819892,136.705812 C458.815412,138.701332 460.024412,138.350982 460.024412,135.777212 C460.024412,134.523922 460.905212,131.651452 461.981732,129.393962 C463.448912,126.317262 464.464732,125.456272 466.038282,125.955702 C467.377532,126.380762 468.137522,126.038542 468.137522,125.010452 C468.137522,124.124102 470.396612,119.786122 473.157722,115.370472 C481.138622,102.607162 487.840772,91.054942 487.840772,90.06184 C487.840772,88.27428 496.452632,75.226898 496.848552,76.41463 C497.330962,77.861895 494.820262,86.445832 491.413662,94.996136 C487.550662,104.691942 480.748342,131.630332 482.052562,132.067662 C483.908842,132.690122 483.383672,137.214752 480.886682,142.112462 C478.114022,147.550872 478.138782,147.328032 480.307172,147.328032 C483.291052,147.328032 482.424762,150.407362 475.288752,165.166572 C475.014102,165.734632 476.161282,165.855092 477.838032,165.434252 C480.607812,164.739072 480.886682,164.978022 480.886682,168.046532 C480.886682,169.904132 478.893282,175.390402 476.456902,180.238262 L472.027112,189.052562 L475.297882,189.052562 C477.977102,189.052562 478.568652,189.555332 478.568652,191.832402 C478.568652,194.898402 473.008092,206.117352 468.657212,211.829672 C465.700122,215.712052 466.400792,216.868912 471.709362,216.868912 C476.534012,216.868912 473.918372,222.811202 465.077162,231.936102 L458.900782,238.310682 L462.918762,239.487142 L466.936752,240.663602 L464.530862,244.702712 C463.207622,246.924212 459.483782,251.449382 456.255642,254.758632 L450.386302,260.775452 L453.502242,261.557512 C457.905272,262.662592 456.688132,265.828572 448.923012,273.468832 C445.466912,276.869352 442.639192,279.868302 442.639192,280.133162 C442.639192,280.398022 443.717452,280.614722 445.035332,280.614722 C449.581982,280.614722 445.698352,287.983702 437.899002,294.155562 L433.161782,297.904252 L436.161972,298.657252 C437.812072,299.071402 439.162152,299.909562 439.162152,300.519812 C439.162152,301.916922 436.777442,306.500902 435.649452,307.272062 C435.183242,307.590792 432.325992,310.140472 429.300002,312.938022 C424.644632,317.241942 424.089672,318.187592 425.692762,319.084722 C428.505322,320.658712 426.438652,323.806032 416.223522,333.505432 C408.361662,340.970382 407.756812,341.850762 410.000892,342.563002 C412.329972,343.302232 412.380032,343.557922 410.795472,346.622112 C409.865372,348.420722 405.697042,352.883812 401.532492,356.540082 C393.811632,363.318612 392.549452,365.222792 395.777202,365.222792 C399.341182,365.222792 396.164532,370.364702 386.912442,379.571782 C381.864512,384.595172 377.734372,388.898012 377.734372,389.133652 C377.734372,389.369302 378.516702,389.562102 379.472892,389.562102 C381.450842,389.562102 381.800952,391.378972 380.033502,392.471322 C379.385642,392.871712 379.125002,393.635262 379.454312,394.168102 C379.783612,394.700922 375.912482,398.631032 370.851792,402.901662 C365.791092,407.172302 361.147802,412.046272 360.533362,413.732702 C359.918912,415.419142 355.475502,421.492962 350.659102,427.230082 C339.123392,440.971002 318.932732,470.645902 325.029982,464.898062 C336.969102,453.643132 348.170872,441.295882 353.474592,433.544752 C361.444332,421.897372 362.409472,420.942402 363.956342,423.173532 C364.836272,424.442692 365.316952,424.531212 365.736832,423.501392 C367.748122,418.568342 373.341152,409.412042 378.313882,402.911592 C383.133772,396.610922 384.325492,395.630472 385.395732,397.085182 C387.146592,399.464992 387.798072,399.289282 388.579722,396.226442 C388.945762,394.792162 391.362602,390.810432 393.950472,387.378152 C396.538342,383.945862 399.163582,380.294972 399.784322,379.265042 C400.806502,377.569072 401.069672,377.594602 402.574502,379.535802 C404.126262,381.537552 404.426742,381.307832 407.122722,376.058762 C408.710392,372.967542 411.598812,368.612912 413.541422,366.381812 C417.135022,362.254522 417.611672,362.297162 420.019562,366.961312 C420.376562,367.652822 420.893852,367.526282 421.301992,366.647632 C421.905082,365.349242 434.026182,348.075172 435.268962,346.742952 C435.533252,346.459632 436.861132,347.339472 438.219812,348.698142 L440.690122,351.168452 L443.113432,346.690302 C445.783082,341.756892 453.488812,332.770382 455.049452,332.770382 C455.593802,332.770382 456.665032,334.428482 457.429982,336.455052 L458.820792,340.139722 L462.030382,335.388972 C465.951122,329.585612 473.652132,321.180232 475.048432,321.180232 C475.610762,321.180232 476.673302,323.005682 477.409632,325.236792 C478.888782,329.718632 480.370532,330.427412 481.410552,327.150592 C482.144512,324.838112 498.557772,309.590092 500.313012,309.590092 C500.898132,309.590092 502.029602,311.022682 502.827372,312.773612 C504.274302,315.949272 504.282652,315.951242 506.211152,313.569652 C508.838872,310.324562 522.710752,300.317972 524.581622,300.317972 C525.410272,300.317972 526.088252,301.274162 526.088252,302.442832 C526.088252,305.934432 527.330092,306.135592 530.334952,303.130722 C533.180992,300.284682 543.501292,294.522902 545.752972,294.522902 C546.411622,294.522902 546.950512,295.386062 546.950512,296.441052 C546.950512,298.169182 547.151452,298.183932 548.978792,296.589992 C552.047032,293.913632 556.466722,291.834382 559.699682,291.546352 C561.293322,291.404362 569.899012,288.058112 578.823422,284.110242 C599.567292,274.933822 600.265192,274.666652 600.265192,275.901552 C600.265192,276.465042 596.744682,279.688962 592.441842,283.065792 C581.208912,291.881322 568.364752,304.128202 568.556172,305.840722 C568.755592,307.624902 560.591342,314.820762 555.189492,317.621922 C551.282762,319.647792 551.273942,319.670802 553.741342,321.399032 C556.111012,323.058812 556.130202,323.222652 554.163542,325.002442 C553.030362,326.027962 549.089262,328.246862 545.405542,329.933322 C539.310922,332.723532 538.896322,333.139722 540.800912,334.555632 C543.896812,336.857212 541.717532,339.525012 533.178722,343.886472 C524.355282,348.393302 523.844272,348.876772 526.395322,350.304412 C530.652802,352.687022 524.163002,357.954482 511.732552,362.205502 C509.704092,362.899202 509.682542,363.103382 511.433482,365.038172 C512.968112,366.733922 513.051682,367.477602 511.881002,369.020932 C510.146982,371.306952 494.543402,379.120422 491.639702,379.156752 C489.908302,379.178402 490.017412,379.519452 492.323012,381.292542 C497.889262,385.573202 491.652032,391.144642 477.699392,394.355162 C471.354272,395.815182 470.334652,396.843742 473.484812,398.606672 C477.348272,400.768772 473.294682,404.159642 462.096412,408.133182 C446.500832,413.667052 446.629852,413.585232 449.134262,416.352592 C451.102292,418.527222 451.088152,418.716722 448.786262,421.018632 C447.193182,422.611692 442.780382,424.157702 435.654412,425.619302 C426.007002,427.598092 421.968012,429.626312 421.813782,432.569572 C421.793512,432.956462 417.213312,434.986002 411.635552,437.079662 C406.057792,439.173332 400.381492,442.074882 399.021562,443.527562 C395.605752,447.176322 390.967802,449.380022 364.985212,459.699842 C352.554782,464.636992 339.515862,470.185782 336.009842,472.030492 C330.186232,475.094622 329.985882,475.324172 333.691812,474.686422 C335.922912,474.302482 343.071392,472.492512 349.577322,470.664282 C366.893852,465.798182 369.621272,465.393922 369.621272,467.693322 C369.621272,469.386512 369.898032,469.407922 372.229052,467.895042 C374.311582,466.543432 383.019792,464.548492 392.222052,463.314902 C392.859512,463.229452 393.211202,464.372512 393.003602,465.855042 C392.656052,468.336932 392.838102,468.437102 395.300952,467.119022 C397.676562,465.847642 412.873702,461.492042 415.112592,461.440882 C415.590692,461.429952 415.981852,462.519922 415.981852,463.863042 C415.981852,465.711432 416.474302,466.116112 418.007552,465.527752 C422.184312,463.924972 431.203232,462.391192 432.814772,463.009592 C433.765502,463.374432 434.188322,464.429662 433.794752,465.455302 C433.228102,466.931962 433.599692,467.071212 435.842572,466.222692 C437.349612,465.652562 441.392872,464.801652 444.827592,464.331782 L451.072532,463.477482 L450.494962,466.498832 L449.917392,469.520172 L457.868442,468.781212 C465.454182,468.076182 465.819492,468.156382 465.819492,470.526702 C465.819492,472.807392 466.426812,473.011162 473.224302,473.011162 C479.565162,473.011162 480.605992,473.302592 480.468152,475.039432 C480.379612,476.154992 480.963082,476.936002 481.764752,476.775022 C482.566412,476.614042 485.434982,476.976482 488.139332,477.580452 C490.843682,478.184412 494.877652,478.997752 497.103732,479.387872 C499.329792,479.777992 501.572322,480.849832 502.087132,481.769732 C502.601932,482.689642 503.948982,483.442292 505.080582,483.442292 C510.579912,483.442292 535.054052,494.041852 537.064052,497.294092 C537.363652,497.778862 527.252552,498.120252 514.594942,498.052742 C494.199572,497.943942 491.324962,498.160752 489.329912,499.958252 C487.837902,501.302522 485.180412,501.986532 481.449622,501.986532 C477.295762,501.986532 475.129712,502.635492 473.184642,504.462802 C470.881522,506.626472 469.148272,506.945632 459.454292,506.991072 C450.040862,507.035212 448.404952,507.318552 448.657862,508.861112 C449.485702,513.910522 445.656212,514.651572 433.941472,511.708912 C427.045552,509.976722 426.365932,509.981112 424.577542,511.769512 C422.403192,513.943852 418.140872,513.459892 411.345802,510.267132 C408.818172,509.079492 404.231392,508.350072 399.176142,508.331832 C390.355242,508.299992 369.338992,502.533962 340.066392,492.114442 C328.733222,488.080442 323.899782,486.891412 320.562932,487.316612 C312.398452,488.356982 311.383002,484.760022 310.542442,507.965802 C309.733032,530.311552 306.910162,555.078322 302.338422,579.944882 C296.664172,584.787632 298.352402,574.084722 299.179332,569.001162 Z M312.594652,479.773312 C310.465682,478.391342 300.907642,478.938082 302.330042,480.360482 C302.945832,480.976272 305.038572,481.434912 306.980582,481.379702 C308.922602,481.324472 310.511522,481.829842 310.511522,482.502712 C310.511522,483.247092 311.213732,483.143352 312.304902,482.237752 C313.739192,481.047402 313.797202,480.553932 312.594652,479.773312 Z M327.168982,411.532312 C328.137012,409.591862 329.252812,405.549792 329.648522,402.549952 L330.368002,397.095702 L327.044992,403.470282 C325.197332,407.014652 323.936852,411.002672 324.205952,412.452642 C324.831782,415.824782 325.063532,415.752802 327.168982,411.532312 Z M335.992102,377.962462 C337.987352,379.030292 338.173262,378.481612 338.526342,370.482702 C338.735912,365.735042 338.471502,362.288962 337.938752,362.824752 C335.792722,364.983032 329.427492,381.233602 330.958232,380.646202 C331.908042,380.281722 332.606392,380.895952 332.718292,382.194262 C332.820302,383.378022 333.114172,382.650842 333.371332,380.578312 C333.776092,377.316172 334.128062,376.964862 335.992102,377.962462 Z" id="path2390"></path>
        </g>
    </g>
</svg>